<?xml version="1.0" standalone="no"?>
<!DOCTYPE svg PUBLIC "-//W3C//DTD SVG 20010904//EN"
 "http://www.w3.org/TR/2001/REC-SVG-20010904/DTD/svg10.dtd">
<svg version="1.0" xmlns="http://www.w3.org/2000/svg"
 width="142.000000pt" height="142.000000pt" viewBox="0 0 142.000000 142.000000"
 preserveAspectRatio="xMidYMid meet">
<metadata>
Created by potrace 1.14, written by Peter Selinger 2001-2017
</metadata>
<g transform="translate(0.000000,142.000000) scale(0.100000,-0.100000)"
fill="#000000" stroke="none">
<path d="M1302 1340 c-12 -11 -24 -20 -27 -20 -3 0 -48 -43 -99 -95 -51 -52
-99 -95 -105 -95 -6 0 -96 -84 -199 -187 l-187 -188 -76 -2 -77 -3 -52 48
c-28 26 -98 93 -155 150 -58 56 -110 102 -115 102 -14 0 -54 40 -63 63 -4 10
-12 17 -19 15 -6 -2 -20 4 -31 15 -13 13 -22 16 -30 8 -7 -7 -11 -163 -11
-490 -1 -264 -4 -482 -7 -486 -8 -7 0 -44 10 -47 3 0 299 -2 658 -3 l651 -2
11 24 c8 18 8 22 0 17 -8 -4 -8 -1 -2 12 5 11 8 46 6 79 -2 33 -4 67 -3 75 1
34 2 117 1 140 -1 14 -1 50 0 80 1 30 1 66 0 80 -1 14 -1 50 0 80 1 30 1 66 0
80 -1 14 -1 50 0 80 1 30 1 66 0 80 -1 14 -1 50 0 80 1 30 1 66 0 80 0 14 0
68 2 120 2 82 -1 97 -17 113 -25 22 -37 22 -64 -3z"/>
</g>
</svg>
